<svg id="Capa_1" enable-background="new 0 0 510.083 510.083" height="128px" viewBox="0 0 510.083 510.083" width="512" xmlns="http://www.w3.org/2000/svg"><g><path d="m463.01 47.104c-57.963-57.956-143.604-60.502-202.299-17.932-27.638 20.047-47.023 48.339-56.061 81.818-2.727 10.101-5.048 19.185-7.293 27.971-13.159 51.504-19.765 77.356-61.394 118.98l-17.344 17.339 25.057 25.054-43.782 43.777c-9.705-6.975-21.551-10.796-34.181-10.796-40.399 0-73.006 38.258-64.293 78.335 4.343 19.979 18.407 35.733 37.622 42.144 8.212 2.74 14.492 9.021 17.232 17.229 2.826 8.472 7.445 15.953 13.727 22.233 24.127 24.125 64.507 21.878 89.042-4.448 21.183-22.727 23.113-55.842 7.164-78.31l43.822-43.817 24.776 24.773 15.406-15.406c49.495-49.491 77.635-51.04 149.534-70.784 51.943-14.26 91.226-54.027 105.08-106.379 14.412-54.448-1.22-111.19-41.815-151.781zm-274.194 298.365-66.245 66.237 13.602 10.409c7.801 5.97 10.002 13.947 10.475 19.588 1.702 20.308-15.695 38.335-35.443 38.335-12.734 0-22.835-7.606-26.472-18.51-5.755-17.245-18.946-30.437-36.194-36.192-9.211-3.072-15.699-10.383-17.802-20.058-2.499-11.494 1.604-23.567 10.974-32.298 13.484-12.565 35.365-13.592 46.412 1.124l10.378 13.825 66.392-66.384c8.364 8.366 15.454 15.455 23.923 23.924zm202.989-69.135c-69.526 19.093-104.593 22.609-156.939 72.756-9.848-9.846-67.787-67.778-73.844-73.835 51.237-52.722 53.85-87.03 72.59-156.446 14.332-53.09 61.587-88.761 117.588-88.761 33.741 0 65.916 13.592 90.597 38.271 69.211 69.203 39.703 183.393-49.992 208.015z"/></g></svg>