<?xml version="1.0" encoding="UTF-8"?>
<svg xmlns="http://www.w3.org/2000/svg" xmlns:xlink="http://www.w3.org/1999/xlink" width="150pt" height="150pt" viewBox="0 0 150 150" version="1.1">
<g id="surface1">
<path style=" stroke:none;fill-rule:nonzero;fill:rgb(0%,0%,0%);fill-opacity:1;" d="M 136.09375 13.90625 C 117.550781 -4.632812 87.382812 -4.632812 68.839844 13.90625 C 60.199219 22.542969 55.417969 35.464844 55.726562 49.527344 C 55.742188 49.710938 57.144531 68.074219 42.289062 82.933594 C 38.386719 86.835938 38.386719 93.1875 42.289062 97.089844 C 44.328125 99.125 47.140625 100.15625 50 100.003906 C 49.828125 102.769531 50.796875 105.597656 52.910156 107.707031 C 54.859375 109.660156 57.421875 110.632812 59.984375 110.632812 C 62.546875 110.632812 65.113281 109.660156 67.066406 107.710938 C 81.925781 92.851562 100.292969 94.253906 100.644531 94.285156 C 114.5625 94.523438 127.460938 89.796875 136.09375 81.160156 C 154.636719 62.617188 154.636719 32.449219 136.09375 13.90625 Z M 132.554688 77.621094 C 124.878906 85.296875 113.257812 89.570312 100.921875 89.289062 C 100.078125 89.21875 80.09375 87.605469 63.527344 104.171875 C 61.574219 106.121094 58.398438 106.121094 56.445312 104.171875 C 54.492188 102.21875 54.492188 99.042969 56.445312 97.089844 C 56.933594 96.601562 57.175781 95.964844 57.175781 95.324219 C 57.175781 94.683594 56.933594 94.042969 56.445312 93.554688 C 55.46875 92.578125 53.886719 92.578125 52.910156 93.554688 C 51.015625 95.449219 47.71875 95.445312 45.824219 93.554688 C 43.871094 91.601562 43.871094 88.425781 45.824219 86.472656 C 62.390625 69.902344 60.78125 49.921875 60.714844 49.25 C 60.445312 36.714844 64.695312 25.117188 72.371094 17.441406 C 88.964844 0.851562 115.964844 0.851562 132.554688 17.441406 C 149.144531 34.03125 149.148438 61.03125 132.554688 77.621094 Z M 132.554688 77.621094 "/>
<path style=" stroke:none;fill-rule:nonzero;fill:rgb(0%,0%,0%);fill-opacity:1;" d="M 81.222656 22.75 C 80.246094 21.773438 78.660156 21.78125 77.6875 22.757812 C 70 30.476562 68.742188 40.898438 68.113281 50.914062 C 68.023438 52.292969 69.070312 53.480469 70.449219 53.566406 C 70.503906 53.570312 70.558594 53.574219 70.609375 53.574219 C 71.917969 53.574219 73.019531 52.554688 73.101562 51.226562 C 73.675781 42.164062 74.769531 32.769531 81.230469 26.285156 C 82.207031 25.304688 82.199219 23.722656 81.222656 22.75 Z M 81.222656 22.75 "/>
<path style=" stroke:none;fill-rule:nonzero;fill:rgb(0%,0%,0%);fill-opacity:1;" d="M 67.882812 66.40625 C 66.578125 65.960938 65.152344 66.652344 64.703125 67.957031 C 64.246094 69.285156 63.894531 70.625 63.546875 71.953125 C 62.96875 74.183594 62.421875 76.289062 61.355469 78.148438 C 60.671875 79.347656 61.089844 80.878906 62.285156 81.5625 C 62.675781 81.785156 63.105469 81.890625 63.523438 81.890625 C 64.390625 81.890625 65.238281 81.4375 65.703125 80.628906 C 67.09375 78.191406 67.753906 75.664062 68.390625 73.214844 C 68.703125 72.007812 69.015625 70.789062 69.433594 69.582031 C 69.882812 68.273438 69.1875 66.855469 67.882812 66.40625 Z M 67.882812 66.40625 "/>
<path style=" stroke:none;fill-rule:nonzero;fill:rgb(0%,0%,0%);fill-opacity:1;" d="M 133.554688 57.625 C 132.285156 57.078125 130.8125 57.65625 130.261719 58.921875 C 125.5 69.886719 114.84375 76.894531 103.011719 76.894531 C 102.84375 76.894531 102.675781 76.890625 102.507812 76.890625 C 101.035156 76.953125 99.988281 77.964844 99.964844 79.347656 C 99.945312 80.726562 101.042969 81.867188 102.425781 81.890625 C 102.621094 81.894531 102.816406 81.894531 103.011719 81.894531 C 116.839844 81.894531 129.289062 73.714844 134.851562 60.914062 C 135.402344 59.648438 134.820312 58.175781 133.554688 57.625 Z M 133.554688 57.625 "/>
<path style=" stroke:none;fill-rule:nonzero;fill:rgb(0%,0%,0%);fill-opacity:1;" d="M 127.238281 22.753906 C 126.265625 21.777344 124.679688 21.777344 123.703125 22.753906 C 122.726562 23.730469 122.726562 25.3125 123.703125 26.292969 C 128.710938 31.300781 131.824219 38.082031 131.824219 43.992188 C 131.824219 45.375 132.941406 46.492188 134.324219 46.492188 C 135.703125 46.492188 136.824219 45.375 136.820312 43.992188 C 136.820312 36.804688 133.152344 28.667969 127.238281 22.753906 Z M 127.238281 22.753906 "/>
<path style=" stroke:none;fill-rule:nonzero;fill:rgb(0%,0%,0%);fill-opacity:1;" d="M 27.5 130.003906 L 17.511719 129.988281 L 17.507812 129.988281 C 16.128906 129.988281 15.011719 131.101562 15.007812 132.484375 C 15.007812 133.867188 16.125 134.988281 17.507812 134.988281 L 27.492188 135.003906 L 27.496094 135.003906 C 28.875 135.003906 29.992188 133.886719 29.996094 132.507812 C 29.996094 131.125 28.878906 130.007812 27.5 130.003906 Z M 27.5 130.003906 "/>
<path style=" stroke:none;fill-rule:nonzero;fill:rgb(0%,0%,0%);fill-opacity:1;" d="M 59.242188 106.960938 C 59.101562 106.160156 58.582031 105.476562 57.851562 105.128906 C 57.273438 104.851562 56.816406 104.539062 56.449219 104.175781 C 54.496094 102.222656 54.496094 99.042969 56.449219 97.089844 C 56.933594 96.605469 57.179688 95.964844 57.179688 95.324219 C 57.179688 94.683594 56.933594 94.042969 56.449219 93.554688 C 55.472656 92.578125 53.890625 92.578125 52.910156 93.554688 C 51.019531 95.445312 47.71875 95.441406 45.832031 93.558594 C 45.457031 93.183594 45.144531 92.726562 44.871094 92.152344 C 44.523438 91.417969 43.839844 90.898438 43.039062 90.761719 C 42.234375 90.621094 41.417969 90.882812 40.847656 91.457031 L 28.003906 104.300781 C 21.148438 99.167969 11.351562 99.71875 5.121094 105.941406 C -1.707031 112.769531 -1.707031 123.886719 5.121094 130.714844 C 7.894531 133.488281 11.855469 134.445312 15.1875 134.8125 C 15.550781 138.144531 16.507812 142.105469 19.28125 144.875 C 22.695312 148.289062 27.179688 149.996094 31.667969 149.996094 C 36.152344 149.996094 40.640625 148.292969 44.058594 144.878906 C 50.289062 138.652344 50.835938 128.855469 45.699219 122 L 58.542969 109.15625 C 59.117188 108.578125 59.378906 107.761719 59.242188 106.960938 Z M 40.519531 120.101562 C 39.542969 121.078125 39.542969 122.660156 40.519531 123.636719 C 45.402344 128.515625 45.402344 136.460938 40.519531 141.339844 C 35.640625 146.21875 27.699219 146.21875 22.816406 141.339844 C 20.617188 139.136719 20.160156 135.152344 20.007812 132.351562 C 19.9375 131.082031 18.917969 130.0625 17.648438 129.992188 C 14.839844 129.839844 10.859375 129.378906 8.65625 127.179688 C 3.777344 122.300781 3.777344 114.355469 8.65625 109.476562 C 11.097656 107.035156 14.304688 105.816406 17.507812 105.816406 C 20.710938 105.816406 23.921875 107.039062 26.359375 109.476562 C 27.339844 110.453125 28.917969 110.453125 29.898438 109.476562 L 42.289062 97.085938 C 42.292969 97.085938 42.292969 97.089844 42.292969 97.089844 C 44.332031 99.128906 47.15625 100.175781 50.003906 100 C 49.832031 102.769531 50.800781 105.597656 52.910156 107.710938 Z M 40.519531 120.101562 "/>
<path style=" stroke:none;fill-rule:nonzero;fill:rgb(0%,0%,0%);fill-opacity:1;" d="M 19.996094 122.496094 C 19.992188 121.117188 18.875 120 17.492188 120 C 16.109375 120.003906 14.992188 121.125 14.992188 122.507812 L 15.007812 132.492188 C 15.011719 133.875 16.128906 134.988281 17.507812 134.988281 L 17.511719 134.988281 C 18.894531 134.988281 20.011719 133.867188 20.007812 132.484375 Z M 19.996094 122.496094 "/>
</g>
</svg>
